<svg width="24" height="24" viewBox="0 0 24 24" fill="none" xmlns="http://www.w3.org/2000/svg">
<path fill-rule="evenodd" clip-rule="evenodd" d="M7.25 10C7.25 8.74022 7.75045 7.53204 8.64124 6.64124C9.53204 5.75045 10.7402 5.25 12 5.25C13.2598 5.25 14.468 5.75045 15.3588 6.64124C16.2496 7.53204 16.75 8.74022 16.75 10C16.75 11.2598 16.2496 12.468 15.3588 13.3588C14.468 14.2496 13.2598 14.75 12 14.75C10.7402 14.75 9.53204 14.2496 8.64124 13.3588C7.75045 12.468 7.25 11.2598 7.25 10ZM12 6.75C11.138 6.75 10.3114 7.09241 9.7019 7.7019C9.09241 8.3114 8.75 9.13805 8.75 10C8.75 10.862 9.09241 11.6886 9.7019 12.2981C10.3114 12.9076 11.138 13.25 12 13.25C12.862 13.25 13.6886 12.9076 14.2981 12.2981C14.9076 11.6886 15.25 10.862 15.25 10C15.25 9.13805 14.9076 8.3114 14.2981 7.7019C13.6886 7.09241 12.862 6.75 12 6.75Z" fill="#FC622C"/>
<path fill-rule="evenodd" clip-rule="evenodd" d="M3.52438 8.857C3.6953 6.7838 4.6396 4.85069 6.16979 3.44147C7.69998 2.03226 9.70415 1.24999 11.7844 1.25H12.2164C14.2966 1.24999 16.3008 2.03226 17.831 3.44147C19.3612 4.85069 20.3054 6.7838 20.4764 8.857C20.6666 11.1663 19.9532 13.4593 18.4864 15.253L13.6934 21.114C13.4883 21.3648 13.23 21.567 12.9372 21.7057C12.6444 21.8445 12.3244 21.9165 12.0004 21.9165C11.6764 21.9165 11.3564 21.8445 11.0636 21.7057C10.7708 21.567 10.5125 21.3648 10.3074 21.114L5.51438 15.253C4.04749 13.4593 3.33406 11.1663 3.52438 8.857ZM11.7844 2.75C10.0809 2.75026 8.43971 3.39103 7.1867 4.54512C5.93368 5.69921 5.16041 7.28225 5.02038 8.98C4.86198 10.9019 5.45566 12.8102 6.67638 14.303L11.4694 20.165C11.5338 20.2439 11.615 20.3074 11.707 20.351C11.799 20.3947 11.8995 20.4173 12.0014 20.4173C12.1032 20.4173 12.2038 20.3947 12.2958 20.351C12.3878 20.3074 12.4689 20.2439 12.5334 20.165L17.3264 14.303C18.5464 12.8099 19.1393 10.9016 18.9804 8.98C18.8403 7.28208 18.0669 5.6989 16.8137 4.54478C15.5605 3.39066 13.9191 2.75001 12.2154 2.75H11.7834H11.7844Z" fill="#FC622C"/>
</svg>
