<svg width="30" height="30" viewBox="0 0 30 30" fill="none" xmlns="http://www.w3.org/2000/svg">
<g clip-path="url(#clip0_104_198)">
<g filter="url(#filter0_i_104_198)">
<path fill-rule="evenodd" clip-rule="evenodd" d="M14.6194 0.0666503C14.437 0.165615 0.179217 14.4229 0.0844125 14.6011C-0.118322 14.9824 0.0416391 15.5281 0.424549 15.7616C0.604256 15.8711 0.722792 15.8781 2.4318 15.8782L4.24809 15.8785L9.62418 10.5026L15.0003 5.12675L20.3764 10.5026L25.7525 15.8785L27.5688 15.8782C29.2693 15.8781 29.3971 15.8707 29.5734 15.7632C29.8539 15.5922 30.0589 15.2317 30.0589 14.9094C30.0589 14.7454 30.0361 14.6551 30.0003 14.6773C29.9681 14.6972 29.9417 14.6792 29.9417 14.6374C29.9417 14.5391 15.6081 0.194853 15.3987 0.0835839C15.2132 -0.0149122 14.787 -0.02417 14.6194 0.0666503ZM4.6232 1.89038C4.21316 2.16431 4.2192 2.11515 4.21914 5.18487L4.21902 7.93849L6.76785 5.39019C9.57115 2.58747 9.43697 2.76032 9.20512 2.24985C9.14184 2.11052 9.01047 1.95688 8.89188 1.88364C8.69354 1.76101 8.63154 1.75737 6.75496 1.75737C4.84322 1.75737 4.82014 1.75884 4.6232 1.89038ZM10.5689 12.0259L6.16715 16.4351L6.64727 16.9039C7.20367 17.447 7.49102 17.9531 7.65074 18.6712C7.81598 19.4137 7.70412 20.2987 7.36129 20.9617C7.27275 21.1329 7.27551 21.1591 7.41566 21.476C7.83607 22.4266 7.83607 23.4515 7.41566 24.402C7.27551 24.7189 7.27275 24.7452 7.36129 24.9164C7.53063 25.2439 7.67354 25.7293 7.71244 26.1094L7.75082 26.4839H15.0003H22.2497L22.2881 26.1094C22.327 25.7293 22.4699 25.2439 22.6393 24.9164C22.7278 24.7452 22.725 24.7189 22.5849 24.402C22.1645 23.4515 22.1645 22.4266 22.5849 21.476C22.725 21.1591 22.7278 21.1329 22.6393 20.9617C22.149 20.0135 22.1558 18.8094 22.6571 17.8074C22.8569 17.4079 23.4868 16.6799 23.76 16.5327C23.8659 16.4757 23.4473 16.0393 19.4535 12.0431C17.0205 9.60864 15.0166 7.61675 15.0003 7.61675C14.984 7.61675 12.9899 9.60091 10.5689 12.0259ZM0.01785 14.9996C0.01785 15.1768 0.0288071 15.2493 0.042225 15.1607C0.055643 15.0721 0.055643 14.927 0.042225 14.8384C0.0288071 14.7498 0.01785 14.8223 0.01785 14.9996ZM11.713 17.1248C11.2955 17.4037 11.3056 17.3111 11.3228 20.7125L11.3382 23.7593L11.4787 23.9564C11.7375 24.3193 11.705 24.316 15.0003 24.316C18.2956 24.316 18.263 24.3193 18.5218 23.9564L18.6624 23.7593L18.678 20.7125C18.6955 17.3106 18.7057 17.4041 18.2875 17.1248L18.0884 16.9918H15.0003H11.9122L11.713 17.1248ZM3.57478 17.7385C3.21144 17.8667 2.6974 18.3953 2.56316 18.7789C2.36787 19.3368 2.45553 19.9747 2.79103 20.4374C3.00789 20.7365 3.23734 20.9127 3.60402 21.0617L3.91662 21.1887L3.67211 21.2541C3.17453 21.3872 2.66652 21.9094 2.51939 22.4389C2.44568 22.7043 2.44568 23.1737 2.51939 23.4391C2.66652 23.9686 3.17453 24.4908 3.67211 24.6239L3.91662 24.6893L3.60402 24.8164C3.43205 24.8862 3.21414 25.0066 3.11969 25.0838C2.75951 25.3783 2.46121 25.9363 2.46121 26.3155V26.4839H4.25582H6.05043L6.01182 26.2349C5.9159 25.6157 5.43156 25.0127 4.85852 24.7989L4.57299 24.6924L4.83894 24.6139C5.20228 24.5066 5.6885 24.0534 5.86439 23.658C6.0543 23.231 6.0543 22.647 5.86439 22.2201C5.68662 21.8205 5.18043 21.3493 4.82746 21.2549L4.57105 21.1863L4.85758 21.0795C5.25285 20.932 5.64502 20.569 5.84172 20.1684C5.97519 19.8966 6.00584 19.7563 6.00449 19.4234C6.00244 18.9163 5.91473 18.6539 5.62416 18.2864C5.29129 17.8653 4.80191 17.6348 4.25359 17.6409C4.02514 17.6434 3.71963 17.6874 3.57478 17.7385ZM24.9714 17.8162C24.337 18.1333 23.9993 18.6797 23.9963 19.3941C23.9947 19.7594 24.0222 19.8901 24.1588 20.1684C24.3555 20.569 24.7477 20.932 25.143 21.0795L25.4295 21.1863L25.1754 21.2543C24.8449 21.3427 24.3566 21.7817 24.1559 22.171C23.9435 22.5828 23.9349 23.2095 24.1355 23.658C24.3123 24.0535 24.7989 24.5068 25.1616 24.6139L25.4276 24.6924L25.142 24.7989C24.569 25.0127 24.0847 25.6157 23.9887 26.2349L23.9501 26.4839H25.7447H27.5393V26.3104C27.5393 26.0139 27.3172 25.5241 27.0623 25.259C26.8335 25.0207 26.3282 24.7303 26.1331 24.7248C26.0848 24.7234 26.1814 24.6752 26.348 24.6177C26.7414 24.4817 27.0415 24.2487 27.2533 23.9148C27.8804 22.9259 27.4461 21.6343 26.3631 21.2676L26.0753 21.1702L26.2997 21.103C26.6194 21.0072 26.9806 20.7488 27.1868 20.4686C27.7425 19.7129 27.632 18.6818 26.9291 18.0631C26.5887 17.7634 26.2291 17.6363 25.7219 17.6363C25.4034 17.6363 25.2652 17.6694 24.9714 17.8162ZM13.0081 20.6539V22.6168H15.0003H16.9925V20.6539V18.691H15.0003H13.0081V20.6539ZM0.703397 28.2255C0.502538 28.2623 0.194159 28.5055 0.0881039 28.7106C-0.117033 29.1073 0.0378891 29.6469 0.424549 29.8827C0.613749 29.998 0.749686 29.9992 15.0003 29.9992C29.1841 29.9992 29.3877 29.9975 29.5734 29.8843C29.8564 29.7117 30.0589 29.353 30.0589 29.0242C30.0589 28.8732 30.0423 28.7661 30.0221 28.7863C30.002 28.8065 29.9294 28.7408 29.861 28.6403C29.7926 28.5398 29.6622 28.4025 29.5712 28.335L29.4057 28.2125L15.1278 28.2055C7.27498 28.2017 0.783964 28.2106 0.703397 28.2255ZM0.01785 29.1207C0.01785 29.2979 0.0288071 29.3704 0.042225 29.2818C0.055643 29.1932 0.055643 29.0481 0.042225 28.9595C0.0288071 28.8709 0.01785 28.9434 0.01785 29.1207Z" fill="#FC622C"/>
</g>
</g>
<defs>
<filter id="filter0_i_104_198" x="-0.00390625" y="0.00378418" width="30.0625" height="33.9954" filterUnits="userSpaceOnUse" color-interpolation-filters="sRGB">
<feFlood flood-opacity="0" result="BackgroundImageFix"/>
<feBlend mode="normal" in="SourceGraphic" in2="BackgroundImageFix" result="shape"/>
<feColorMatrix in="SourceAlpha" type="matrix" values="0 0 0 0 0 0 0 0 0 0 0 0 0 0 0 0 0 0 127 0" result="hardAlpha"/>
<feOffset dy="4"/>
<feGaussianBlur stdDeviation="7"/>
<feComposite in2="hardAlpha" operator="arithmetic" k2="-1" k3="1"/>
<feColorMatrix type="matrix" values="0 0 0 0 1 0 0 0 0 1 0 0 0 0 1 0 0 0 0.25 0"/>
<feBlend mode="normal" in2="shape" result="effect1_innerShadow_104_198"/>
</filter>
<clipPath id="clip0_104_198">
<rect width="30" height="30" fill="white"/>
</clipPath>
</defs>
</svg>
