<svg width="30" height="30" viewBox="0 0 30 30" fill="none" xmlns="http://www.w3.org/2000/svg">
<g filter="url(#filter0_i_104_200)">
<path fill-rule="evenodd" clip-rule="evenodd" d="M17.666 0.974641C16.2833 1.26527 15.1554 2.35886 14.792 3.76136C14.6736 4.2181 14.6742 5.1345 14.7932 5.5957C15.1993 7.17075 16.6255 8.33431 18.2589 8.42349C19.3573 8.48343 20.3225 8.10468 21.1249 7.29878C21.8729 6.54761 22.2079 5.73609 22.2062 4.67906C22.2051 3.98683 22.0912 3.5022 21.7967 2.93636C21.0049 1.41509 19.3378 0.623313 17.666 0.974641ZM18.1641 1.75781C18.0862 1.83568 18.0469 1.9531 18.0469 2.10784C18.0469 2.30519 18.0211 2.35406 17.8781 2.428C17.244 2.75595 16.95 3.37851 17.1114 4.05158C17.2462 4.61337 17.8676 5.09765 18.4537 5.09765C18.6913 5.09765 18.9844 5.37187 18.9844 5.59411C18.9844 5.78911 18.8418 6.06843 18.7181 6.11595C18.3452 6.25904 17.9297 6.03117 17.9297 5.68359C17.9297 5.45865 17.7012 5.21484 17.4902 5.21484C17.2921 5.21484 17.0508 5.459 17.0508 5.6595C17.0508 6.10863 17.4211 6.6812 17.8403 6.88013C18.0383 6.97411 18.0469 6.99093 18.0469 7.28859C18.0469 7.64941 18.1746 7.81247 18.457 7.81247C18.7395 7.81247 18.8672 7.64941 18.8672 7.28859C18.8672 6.99093 18.8757 6.97411 19.0738 6.88013C19.1875 6.82617 19.3828 6.66574 19.508 6.52359C19.9146 6.06169 19.9621 5.42747 19.6296 4.90306C19.3983 4.53831 19.0939 4.35093 18.5709 4.25126C18.0759 4.15699 17.9297 4.03347 17.9297 3.70968C17.9297 3.43886 18.1953 3.16406 18.457 3.16406C18.6724 3.16406 18.9844 3.43704 18.9844 3.62554C18.9844 4.1257 19.6206 4.31144 19.8055 3.86525C19.9915 3.41624 19.5288 2.5954 18.999 2.4345C18.8882 2.40081 18.8672 2.35312 18.8672 2.13474C18.8672 1.82191 18.7167 1.64062 18.457 1.64062C18.3594 1.64062 18.2292 1.69271 18.1641 1.75781ZM9.8284 6.46259C9.73945 6.50144 8.28428 7.80685 6.59479 9.36351C3.23695 12.4573 3.28904 12.3992 3.35438 12.9789C3.43441 13.6893 4.22063 14.1459 4.87981 13.8649C5.02395 13.8035 8.72719 10.4555 10.0803 9.16329L10.2876 8.96537L12.8635 11.3422C14.2803 12.6494 15.5373 13.7699 15.6568 13.8322C16.0522 14.0379 16.66 13.935 16.9412 13.6146C17.2314 13.284 17.3105 12.763 17.1288 12.3799C17.0295 12.1707 11.1755 6.71689 10.8127 6.49564C10.6062 6.36972 10.0816 6.35208 9.8284 6.46259ZM12.0703 6.40933C12.0703 6.42175 13.3294 7.59275 14.8682 9.01154C16.407 10.4303 17.6992 11.6463 17.7397 11.7135L17.8135 11.8359H22.7105C25.4038 11.8359 27.5987 11.8139 27.5879 11.7869C27.5559 11.7067 22.448 7.14843 22.3901 7.14843C22.3607 7.14843 22.324 7.18148 22.3086 7.22191C22.293 7.26228 22.1568 7.44708 22.0058 7.63253C21.7659 7.92697 21.7446 7.97443 21.8372 8.00742C22.1636 8.12349 22.2603 8.50447 22.0202 8.72818C21.8942 8.8456 21.8329 8.84765 18.457 8.84765C15.0812 8.84765 15.0199 8.8456 14.8939 8.72818C14.6537 8.50441 14.7505 8.12349 15.0771 8.0073C15.171 7.9739 15.1564 7.9371 14.9514 7.69077C14.6794 7.36411 14.35 6.84714 14.2418 6.57714L14.1655 6.38671H13.1179C12.5417 6.38671 12.0703 6.39691 12.0703 6.40933ZM8.05664 12.1982C6.83203 13.3274 5.77072 14.2983 5.69824 14.3558L5.56641 14.4602V17.6091V20.7579L5.96191 20.7277C6.48035 20.688 6.94465 20.5056 7.38885 20.1673C8.15391 19.5844 8.36385 19.4514 8.78906 19.2803C9.89555 18.8352 11.1127 18.7047 12.378 18.8954C13.109 19.0056 13.7202 19.2117 14.392 19.5745C14.6861 19.7334 14.9431 19.8633 14.9633 19.8633C14.9835 19.8633 15 18.6509 15 17.1692V14.4751L14.7253 14.2249C14.5743 14.0872 13.5789 13.1734 12.5134 12.1941C11.4479 11.2148 10.5103 10.3531 10.4297 10.2792L10.2832 10.1449L8.05664 12.1982ZM9.75586 12.7077C8.89811 13.1012 8.70205 14.1585 9.36445 14.8181C9.90744 15.3588 10.6646 15.3676 11.2056 14.8396C11.6506 14.4052 11.7255 13.7445 11.391 13.2035C11.0624 12.672 10.3226 12.4477 9.75586 12.7077ZM18.0902 13.0043C18.0018 13.9787 17.236 14.7313 16.2527 14.8103L15.8777 14.8403L15.893 17.4837L15.9082 20.1269L17.8418 20.1562L19.7754 20.1855L20.1104 20.3501C20.7544 20.6663 21.196 21.2462 21.3451 21.9715L21.416 22.3168L23.5693 21.1128L25.7227 19.9089V16.2826V12.6562H21.9222H18.1218L18.0902 13.0043ZM10.1152 19.7748C9.21733 19.9614 8.76123 20.1708 8.14049 20.6814C7.31133 21.3635 6.57709 21.6182 5.43457 21.6201L4.80469 21.6211V24.7019V27.7827L4.96582 27.7493C7.26844 27.2718 10.4623 27.3243 13.5059 27.8897C14.3456 28.0457 15.9257 28.1048 16.7871 28.0124C18.3554 27.8442 19.8923 27.4024 21.2402 26.7325C22.072 26.3191 28.3674 22.6212 28.5797 22.4212C28.8981 22.1215 29.0205 21.7985 28.9939 21.3281C28.9672 20.8543 28.7859 20.5399 28.3712 20.2485C28.0356 20.0126 27.5069 19.97 27.1076 20.1467C26.7647 20.2984 20.8337 23.6163 20.3657 23.9182C19.7485 24.3164 19.7483 24.3164 16.6847 24.3164C14.9031 24.3164 13.8978 24.2951 13.8243 24.2558C13.6675 24.1718 13.6675 23.8164 13.8243 23.7325C13.8976 23.6933 14.8843 23.6718 16.6221 23.6715C18.2397 23.6713 19.3909 23.6478 19.5186 23.6123C20.3194 23.3899 20.7201 22.5348 20.3759 21.783C20.2898 21.5949 20.1422 21.3959 20.0195 21.3023C19.6266 21.0026 19.4202 20.9766 17.4346 20.9766C15.2715 20.9766 15.2548 20.9736 14.0918 20.3878C12.9939 19.8349 12.6336 19.7428 11.4551 19.714C10.7907 19.6979 10.4004 19.7156 10.1152 19.7748ZM0.996094 24.7852V29.1211H2.49023H3.98438V24.7852V20.4492H2.49023H0.996094V24.7852Z" fill="#FC622C"/>
</g>
<defs>
<filter id="filter0_i_104_200" x="0.996094" y="0.89209" width="28.001" height="32.229" filterUnits="userSpaceOnUse" color-interpolation-filters="sRGB">
<feFlood flood-opacity="0" result="BackgroundImageFix"/>
<feBlend mode="normal" in="SourceGraphic" in2="BackgroundImageFix" result="shape"/>
<feColorMatrix in="SourceAlpha" type="matrix" values="0 0 0 0 0 0 0 0 0 0 0 0 0 0 0 0 0 0 127 0" result="hardAlpha"/>
<feOffset dy="4"/>
<feGaussianBlur stdDeviation="7"/>
<feComposite in2="hardAlpha" operator="arithmetic" k2="-1" k3="1"/>
<feColorMatrix type="matrix" values="0 0 0 0 1 0 0 0 0 1 0 0 0 0 1 0 0 0 0.25 0"/>
<feBlend mode="normal" in2="shape" result="effect1_innerShadow_104_200"/>
</filter>
</defs>
</svg>
