<svg width="30" height="30" viewBox="0 0 30 30" fill="none" xmlns="http://www.w3.org/2000/svg">
<g clip-path="url(#clip0_104_194)">
<g filter="url(#filter0_i_104_194)">
<path fill-rule="evenodd" clip-rule="evenodd" d="M5.6543 0.119313C2.30227 0.82402 0 3.63851 0 7.03144C0 8.96398 0.717891 10.6941 2.08031 12.0451C3.08221 13.0386 4.37836 13.7067 5.83008 13.9778C6.59953 14.1215 7.96699 14.0707 8.73481 13.8699C11.31 13.1962 13.1996 11.3063 13.869 8.735C14.05 8.03943 14.1149 6.77058 14.0072 6.03365C13.6273 3.43543 11.8618 1.27789 9.38871 0.389372C8.2875 -0.00625348 6.77262 -0.115824 5.6543 0.119313ZM5.05354 3.26252C4.8498 3.30441 4.53164 3.63939 4.46443 3.88273C4.30008 4.47799 4.84928 5.06258 5.45836 4.94076C5.69883 4.89265 6.06498 4.52392 6.11355 4.28099C6.23373 3.68006 5.66766 3.13619 5.05354 3.26252ZM8.85463 3.28174C8.74565 3.3074 8.58451 3.40349 8.49662 3.49537C8.18438 3.82138 4.2007 9.58279 4.15758 9.7707C4.05656 10.2109 4.34162 10.6836 4.76578 10.7793C5.05359 10.8442 5.40445 10.7481 5.58129 10.556C5.895 10.2151 9.84176 4.4992 9.89396 4.31006C9.97787 4.00631 9.88412 3.69371 9.64266 3.47187C9.52863 3.36711 9.38438 3.28144 9.32203 3.28144C9.25975 3.28144 9.17367 3.27101 9.13078 3.25824C9.08783 3.24552 8.96356 3.25607 8.85463 3.28174ZM8.56916 9.12189C8.36543 9.16379 8.04727 9.49877 7.98006 9.74211C7.8157 10.3374 8.3649 10.922 8.97399 10.8001C9.21445 10.752 9.58061 10.3833 9.62918 10.1404C9.74936 9.53943 9.18328 8.99556 8.56916 9.12189ZM16.1895 9.8934C14.9878 10.6932 14.9684 10.7094 14.8034 11.0506C13.5754 13.5898 10.6641 15.5548 7.84986 15.744L7.35018 15.7776L6.50385 16.3411C5.55445 16.9731 5.39051 17.1545 5.39086 17.5723C5.39127 18.0726 5.76732 18.4566 6.25723 18.457C6.54797 18.4573 6.74443 18.363 7.4707 17.8748L7.99805 17.5203L8.02734 23.4845C8.05494 29.1062 8.06273 29.458 8.16234 29.6101C8.22053 29.6988 8.35236 29.8228 8.45531 29.8856C8.63262 29.9937 8.76639 29.9998 10.97 30L13.2975 30.0002L13.3138 26.2063C13.3293 22.6033 13.3356 22.4041 13.4404 22.2496C13.501 22.1602 13.6328 22.0283 13.7333 21.9567L13.916 21.8264H17.6953H21.4746L21.6573 21.9567C21.7578 22.0283 21.8896 22.1602 21.9503 22.2496C22.055 22.4041 22.0614 22.6033 22.0768 26.2063L22.0931 30.0002L24.4206 30C26.6397 29.9998 26.757 29.9943 26.939 29.8833C27.0441 29.8193 27.1823 29.681 27.2464 29.5759C27.3606 29.3887 27.3629 29.2688 27.363 23.4523C27.3632 20.1894 27.3796 17.5197 27.3996 17.5197C27.4195 17.5197 27.637 17.6602 27.8829 17.8319C28.6184 18.3455 28.8407 18.4572 29.1263 18.457C29.8164 18.4564 30.2456 17.6735 29.8682 17.1036C29.7725 16.9592 28.1999 15.8779 24.1406 13.1653C21.063 11.1087 18.4131 9.34894 18.252 9.25472C18.0414 9.13156 17.8815 9.08316 17.6836 9.08275C17.4271 9.08228 17.3248 9.13777 16.1895 9.8934ZM17.2662 15.0064C16.2178 15.1577 15.2743 16.1178 15.1228 17.1877C14.8761 18.929 16.3446 20.3975 18.086 20.1509C18.9828 20.0238 19.8323 19.3357 20.139 18.4876C20.634 17.1188 19.9093 15.586 18.5449 15.1159C18.1655 14.9851 17.6938 14.9448 17.2662 15.0064ZM17.2407 16.8163C16.4785 17.281 16.8043 18.4568 17.6953 18.4568C18.1952 18.4568 18.5738 18.0782 18.5738 17.5783C18.5738 17.0784 18.1952 16.6998 17.6953 16.6998C17.5354 16.6998 17.3565 16.7456 17.2407 16.8163ZM15.0586 26.7775V30.0002H17.6953H20.332V26.7775V23.5549H17.6953H15.0586V26.7775Z" fill="#FC622C"/>
</g>
</g>
<defs>
<filter id="filter0_i_104_194" x="0" y="-0.00341797" width="30.0088" height="34.0036" filterUnits="userSpaceOnUse" color-interpolation-filters="sRGB">
<feFlood flood-opacity="0" result="BackgroundImageFix"/>
<feBlend mode="normal" in="SourceGraphic" in2="BackgroundImageFix" result="shape"/>
<feColorMatrix in="SourceAlpha" type="matrix" values="0 0 0 0 0 0 0 0 0 0 0 0 0 0 0 0 0 0 127 0" result="hardAlpha"/>
<feOffset dy="4"/>
<feGaussianBlur stdDeviation="7"/>
<feComposite in2="hardAlpha" operator="arithmetic" k2="-1" k3="1"/>
<feColorMatrix type="matrix" values="0 0 0 0 1 0 0 0 0 1 0 0 0 0 1 0 0 0 0.25 0"/>
<feBlend mode="normal" in2="shape" result="effect1_innerShadow_104_194"/>
</filter>
<clipPath id="clip0_104_194">
<rect width="30" height="30" fill="white"/>
</clipPath>
</defs>
</svg>
