<svg width="30" height="30" viewBox="0 0 30 30" fill="none" xmlns="http://www.w3.org/2000/svg">
<g filter="url(#filter0_i_104_193)">
<path fill-rule="evenodd" clip-rule="evenodd" d="M14.4434 1.01613C14.0914 1.13303 13.7175 1.33406 13.3713 1.59258C12.925 1.9258 12.5016 2.10814 12.1722 2.10879C12.0188 2.10914 11.6497 2.05424 11.3519 1.98685C10.7163 1.84295 9.87569 1.85349 9.57481 2.00906C9.15686 2.22521 8.79041 2.58691 8.42256 3.14637C7.815 4.07057 7.5675 4.23515 6.54668 4.394C5.96379 4.48471 5.4559 4.70033 5.10527 5.00596C4.78055 5.28896 4.49268 5.91252 4.394 6.54668C4.23516 7.5675 4.07057 7.815 3.14637 8.42256C2.58691 8.79041 2.22521 9.15686 2.00906 9.5748C1.8535 9.87568 1.84295 10.7163 1.98686 11.3519C2.05424 11.6497 2.10914 12.0188 2.10879 12.1722C2.10814 12.5037 1.92416 12.9288 1.58936 13.3721C1.46016 13.5433 1.26721 13.8675 1.16063 14.0926C0.988535 14.456 0.966797 14.5579 0.966797 15C0.966797 15.4421 0.988535 15.544 1.16063 15.9074C1.26721 16.1325 1.46016 16.4567 1.58936 16.6279C2.12572 17.3382 2.20172 17.727 1.98475 18.651C1.83897 19.2722 1.85051 20.1186 2.00906 20.4252C2.22521 20.8431 2.58691 21.2096 3.14637 21.5774C4.07057 22.185 4.23516 22.4325 4.394 23.4533C4.59387 24.7375 5.26254 25.4061 6.54668 25.606C7.5675 25.7648 7.815 25.9294 8.42256 26.8536C8.79041 27.4131 9.15686 27.7748 9.57481 27.9909C9.87569 28.1465 10.7163 28.1571 11.3519 28.0131C11.6497 27.9458 12.0188 27.8909 12.1722 27.8912C12.5016 27.8919 12.925 28.0742 13.3713 28.4074C14.5215 29.2662 15.4785 29.2662 16.6287 28.4074C17.075 28.0742 17.4984 27.8919 17.8278 27.8912C17.9812 27.8909 18.3503 27.9458 18.6481 28.0131C19.2837 28.1571 20.1243 28.1465 20.4252 27.9909C20.8431 27.7748 21.2096 27.4131 21.5774 26.8536C22.185 25.9294 22.4325 25.7648 23.4533 25.606C24.0362 25.5153 24.5441 25.2997 24.8947 24.994C25.2195 24.711 25.5073 24.0875 25.606 23.4533C25.7648 22.4325 25.9294 22.185 26.8536 21.5774C27.4131 21.2096 27.7748 20.8431 27.9909 20.4252C28.1465 20.1243 28.1571 19.2837 28.0131 18.6481C27.9458 18.3503 27.8909 17.9812 27.8912 17.8278C27.8919 17.4983 28.0743 17.0748 28.4075 16.6287C29.2564 15.4926 29.2574 14.4936 28.4107 13.3721C28.0758 12.9288 27.8919 12.5037 27.8912 12.1722C27.8909 12.0188 27.9458 11.6497 28.0131 11.3519C28.1571 10.7163 28.1465 9.87568 27.9909 9.5748C27.7748 9.15686 27.4131 8.79041 26.8536 8.42256C25.9294 7.815 25.7648 7.5675 25.606 6.54668C25.4061 5.26254 24.7375 4.59387 23.4533 4.394C22.4325 4.23515 22.185 4.07057 21.5774 3.14637C21.2096 2.58691 20.8431 2.22521 20.4252 2.00906C20.1186 1.85051 19.2722 1.83896 18.651 1.98474C17.727 2.20172 17.3382 2.12572 16.6279 1.58935C16.1148 1.20205 15.577 0.980565 15.0944 0.957889C14.8508 0.946463 14.5804 0.970662 14.4434 1.01613ZM14.135 4.7533C8.02242 5.25621 3.70564 11.0312 4.92703 17.0717C5.77102 21.2455 9.15727 24.4719 13.4228 25.1663C14.2223 25.2964 15.6931 25.2981 16.5347 25.1698C20.9675 24.4941 24.4941 20.9675 25.1698 16.5347C25.2981 15.6931 25.2964 14.2223 25.1663 13.4228C24.6182 10.0562 22.5224 7.22578 19.4824 5.74646C18.3345 5.18789 17.1447 4.8665 15.791 4.74949C15.0158 4.68246 14.995 4.68252 14.135 4.7533ZM13.8281 5.66338C13.3714 5.72279 12.2565 5.9973 11.824 6.15674C10.4568 6.66082 9.42235 7.32644 8.37668 8.3748C7.01268 9.74226 6.22506 11.1901 5.79164 13.1265C5.67088 13.6662 5.6543 13.8922 5.6543 15C5.6543 16.1078 5.67088 16.3338 5.79164 16.8735C6.22658 18.8166 7.00863 20.2546 8.37621 21.6257C9.73412 22.9872 11.2123 23.7895 13.1397 24.2112C13.6582 24.3247 13.9123 24.3427 15 24.3427C16.0877 24.3427 16.3418 24.3247 16.8603 24.2112C18.7791 23.7913 20.26 22.9867 21.6233 21.6233C22.9621 20.2846 23.7364 18.8829 24.1802 16.995C24.3587 16.2356 24.4302 14.6285 24.3217 13.8135C23.8481 10.2562 21.3644 7.22848 17.9883 6.09275C17.0091 5.76334 16.4391 5.67363 15.2051 5.65465C14.5605 5.64474 13.9409 5.64867 13.8281 5.66338ZM15.634 8.05137C15.196 8.16791 14.8071 8.5183 14.6463 8.94123C14.6112 9.03334 14.5605 9.36322 14.5335 9.6743C14.4816 10.272 14.3541 10.6476 14.0826 11.0036C13.9549 11.1711 12.6582 12.1875 12.5723 12.1875C12.5571 12.1875 12.5 12.0935 12.4454 11.9786C12.3229 11.7204 11.8946 11.3853 11.6097 11.3246C11.4924 11.2997 11.0793 11.2793 10.6917 11.2793C10.0508 11.2793 9.96047 11.2929 9.6961 11.429C9.33211 11.6164 9.05361 11.975 8.97024 12.3636C8.88252 12.7727 8.88252 18.6335 8.97024 19.0426C9.05361 19.4314 9.33217 19.7899 9.69639 19.9772C9.96615 20.1161 10.045 20.127 10.7798 20.127C11.4911 20.127 11.6006 20.113 11.8492 19.9905C12.0015 19.9155 12.1929 19.7749 12.2745 19.678L12.4227 19.5018L12.935 19.7115C13.8819 20.0991 13.9797 20.1111 16.4157 20.1404C17.8731 20.1579 18.7648 20.1448 19.0417 20.1018C20.0809 19.9406 20.8676 19.1716 21.0324 18.156C21.1109 17.6725 21.1109 14.6716 21.0325 14.1882C20.8711 13.194 20.0874 12.4102 19.0935 12.2488C18.8885 12.2156 18.4487 12.1882 18.1162 12.188C17.5683 12.1876 17.5144 12.1779 17.5414 12.085C17.7411 11.3967 17.8304 10.4438 17.7492 9.86777C17.6397 9.09146 17.2264 8.43937 16.6806 8.18168C16.2929 7.99869 15.979 7.95961 15.634 8.05137ZM15.6181 9.04453C15.5101 9.15258 15.4718 9.271 15.4431 9.58652C15.3147 10.9992 15.0042 11.5158 13.7109 12.4683C13.3403 12.7413 12.9514 13.0455 12.8467 13.1442L12.6563 13.3238V15.9465V18.5693L12.9212 18.7246C13.0669 18.8099 13.3767 18.9495 13.6097 19.0347L14.0332 19.1895L16.5218 19.2071C18.7203 19.2227 19.0399 19.2135 19.2634 19.1281C19.6212 18.9915 19.8584 18.7719 20.0176 18.4301C20.1533 18.1387 20.1551 18.1086 20.1551 16.1719C20.1551 14.2318 20.1535 14.2055 20.0167 13.9119C19.8582 13.5713 19.5469 13.2888 19.2233 13.1919C19.0917 13.1525 18.5579 13.1246 17.9229 13.1241C16.7636 13.1232 16.6085 13.0913 16.4818 12.8273C16.4208 12.7 16.4408 12.5903 16.6252 12.038C16.8313 11.4206 16.8394 11.3646 16.8425 10.5469C16.8454 9.77936 16.8332 9.67389 16.7164 9.45563C16.4338 8.92717 15.9257 8.73697 15.6181 9.04453ZM9.97113 12.3231L9.84375 12.4587V15.7113V18.9639L9.97934 19.0914C10.1024 19.2069 10.1776 19.2188 10.7895 19.2188C11.4188 19.2188 11.4725 19.2097 11.5914 19.0832L11.7188 18.9475V15.6949V12.4423L11.5832 12.3149C11.4601 12.1993 11.3849 12.1875 10.773 12.1875C10.1438 12.1875 10.09 12.1966 9.97113 12.3231Z" fill="#FC622C"/>
</g>
<defs>
<filter id="filter0_i_104_193" x="0.966797" y="0.955078" width="28.0781" height="32.0964" filterUnits="userSpaceOnUse" color-interpolation-filters="sRGB">
<feFlood flood-opacity="0" result="BackgroundImageFix"/>
<feBlend mode="normal" in="SourceGraphic" in2="BackgroundImageFix" result="shape"/>
<feColorMatrix in="SourceAlpha" type="matrix" values="0 0 0 0 0 0 0 0 0 0 0 0 0 0 0 0 0 0 127 0" result="hardAlpha"/>
<feOffset dy="4"/>
<feGaussianBlur stdDeviation="7"/>
<feComposite in2="hardAlpha" operator="arithmetic" k2="-1" k3="1"/>
<feColorMatrix type="matrix" values="0 0 0 0 1 0 0 0 0 1 0 0 0 0 1 0 0 0 0.25 0"/>
<feBlend mode="normal" in2="shape" result="effect1_innerShadow_104_193"/>
</filter>
</defs>
</svg>
