<svg width="43" height="43" viewBox="0 0 43 43" fill="none" xmlns="http://www.w3.org/2000/svg">
<path d="M32.7877 10.2303C32.6219 10.0642 32.425 9.93246 32.2083 9.84255C31.9915 9.75265 31.7592 9.70637 31.5245 9.70637C31.2899 9.70637 31.0575 9.75265 30.8408 9.84255C30.624 9.93246 30.4272 10.0642 30.2614 10.2303L21.5002 18.9737L12.7389 10.2124C12.573 10.0465 12.3761 9.91496 12.1594 9.82518C11.9427 9.73541 11.7104 9.68921 11.4758 9.68921C11.2412 9.68921 11.0089 9.73541 10.7922 9.82518C10.5755 9.91496 10.3785 10.0465 10.2127 10.2124C10.0468 10.3783 9.9152 10.5752 9.82543 10.7919C9.73566 11.0087 9.68945 11.241 9.68945 11.4755C9.68945 11.7101 9.73566 11.9424 9.82543 12.1591C9.9152 12.3759 10.0468 12.5728 10.2127 12.7387L18.9739 21.4999L10.2127 30.2612C10.0468 30.427 9.9152 30.624 9.82543 30.8407C9.73566 31.0574 9.68945 31.2897 9.68945 31.5243C9.68945 31.7589 9.73566 31.9912 9.82543 32.2079C9.9152 32.4246 10.0468 32.6215 10.2127 32.7874C10.3785 32.9533 10.5755 33.0849 10.7922 33.1746C11.0089 33.2644 11.2412 33.3106 11.4758 33.3106C11.7104 33.3106 11.9427 33.2644 12.1594 33.1746C12.3761 33.0849 12.573 32.9533 12.7389 32.7874L21.5002 24.0262L30.2614 32.7874C30.4273 32.9533 30.6242 33.0849 30.8409 33.1746C31.0577 33.2644 31.2899 33.3106 31.5245 33.3106C31.7591 33.3106 31.9914 33.2644 32.2081 33.1746C32.4249 33.0849 32.6218 32.9533 32.7877 32.7874C32.9535 32.6215 33.0851 32.4246 33.1749 32.2079C33.2647 31.9912 33.3109 31.7589 33.3109 31.5243C33.3109 31.2897 33.2647 31.0574 33.1749 30.8407C33.0851 30.624 32.9535 30.427 32.7877 30.2612L24.0264 21.4999L32.7877 12.7387C33.4685 12.0578 33.4685 10.9112 32.7877 10.2303Z" fill="#2579A7"/>
</svg>
