<svg width="42" height="42" viewBox="0 0 42 42" fill="none" xmlns="http://www.w3.org/2000/svg">
<g clip-path="url(#clip0_1_1693)">
<path d="M21 0C15.4317 0 10.0866 2.21386 6.15234 6.1507C2.21407 10.0891 0.00109092 15.4303 0 21C0 26.5673 2.21484 31.9125 6.15234 35.8493C10.0866 39.7861 15.4317 42 21 42C26.5683 42 31.9134 39.7861 35.8477 35.8493C39.7852 31.9125 42 26.5673 42 21C42 15.4327 39.7852 10.0875 35.8477 6.1507C31.9134 2.21386 26.5683 0 21 0Z" fill="url(#paint0_linear_1_1693)"/>
<path d="M9.50499 20.7781C15.6278 18.1111 19.7097 16.3527 21.7506 15.5031C27.5847 13.0773 28.7955 12.656 29.5862 12.6417C29.7601 12.6389 30.1473 12.6819 30.4 12.8862C30.61 13.0584 30.6691 13.2914 30.6986 13.455C30.7248 13.6184 30.7609 13.9908 30.7314 14.2815C30.4164 17.6022 29.0481 25.6602 28.3525 29.3795C28.0605 30.9532 27.4797 31.4809 26.9186 31.5324C25.698 31.6446 24.7727 30.7265 23.5914 29.9525C21.7441 28.7407 20.7006 27.9867 18.9058 26.8044C16.832 25.4381 18.1773 24.687 19.3586 23.4598C19.667 23.1386 25.0417 18.2512 25.1434 17.8079C25.1566 17.7524 25.1697 17.5457 25.045 17.4368C24.9236 17.3275 24.7431 17.3649 24.6119 17.3945C24.4248 17.4365 21.475 19.3881 15.7525 23.2492C14.9158 23.8247 14.1578 24.1053 13.4753 24.0905C12.7272 24.0744 11.2834 23.6666 10.2105 23.3181C8.89796 22.8905 7.85124 22.6645 7.94312 21.9383C7.98906 21.5603 8.51078 21.1735 9.50499 20.7781Z" fill="white"/>
</g>
<defs>
<linearGradient id="paint0_linear_1_1693" x1="2100" y1="0" x2="2100" y2="4200" gradientUnits="userSpaceOnUse">
<stop stop-color="#2AABEE"/>
<stop offset="1" stop-color="#229ED9"/>
</linearGradient>
<clipPath id="clip0_1_1693">
<rect width="42" height="42" fill="white"/>
</clipPath>
</defs>
</svg>
