<svg width="58" height="58" viewBox="0 0 58 58" fill="none" xmlns="http://www.w3.org/2000/svg">
<path d="M29 0C12.9848 0 0 12.9848 0 29C0 45.0153 12.9848 58 29 58C45.0153 58 58 45.0153 58 29C58 12.9848 45.0153 0 29 0ZM43.2438 19.8674L38.483 42.2941C38.1326 43.8843 37.1853 44.2709 35.8633 43.5218L28.6133 38.1809L25.1188 41.5498C24.9476 41.7714 24.7279 41.9509 24.4766 42.0745C24.2252 42.198 23.9489 42.2624 23.6688 42.2627H23.6567L24.1715 34.8822L37.6082 22.7457C38.1882 22.2309 37.4777 21.9385 36.7068 22.4533L20.1067 32.9077L12.9533 30.6748C11.4067 30.1842 11.3632 29.1281 13.2796 28.3693L41.2308 17.5958C42.5309 17.1221 43.6619 17.9051 43.2414 19.8698L43.2438 19.8674Z" fill="#FAFAFA"/>
</svg>
