<svg width="30" height="30" viewBox="0 0 30 30" fill="none" xmlns="http://www.w3.org/2000/svg">
<g clip-path="url(#clip0_104_196)">
<g filter="url(#filter0_i_104_196)">
<path fill-rule="evenodd" clip-rule="evenodd" d="M1.39107 0.121959C1.02504 0.208912 0.733884 0.388502 0.453279 0.700572C-0.0308226 1.23905 0.000407864 0.735787 0.000407864 7.99807C0.000407864 13.7705 0.0103688 14.4809 0.0945094 14.728C0.222595 15.1039 0.680799 15.5934 1.06857 15.7687L1.37736 15.9082H11.8423H22.3072L22.7092 15.7032C22.9994 15.5551 23.1715 15.4182 23.3279 15.2111C23.749 14.6532 23.7309 14.9788 23.7309 7.99807C23.7309 1.01739 23.749 1.34299 23.3279 0.785064C23.1715 0.577935 22.9994 0.441002 22.7092 0.292994L22.3072 0.0879158L11.9595 0.0787752C6.04576 0.0735018 1.51717 0.0920174 1.39107 0.121959ZM16.2602 3.04309C16.1957 3.07034 16.0771 3.16356 15.9965 3.25016C15.8507 3.40696 15.85 3.41311 15.8323 4.70827C15.815 5.98831 15.8169 6.0121 15.9516 6.21249C16.1705 6.53809 16.2929 6.55591 18.311 6.55591C20.329 6.55591 20.4514 6.53809 20.6703 6.21249C20.8051 6.0121 20.8069 5.98848 20.7896 4.70469L20.7719 3.40046L20.5804 3.20903L20.3889 3.0176L18.3831 3.00553C17.2799 2.99891 16.3246 3.01579 16.2602 3.04309ZM16.4653 4.77624V5.86104L18.2963 5.84557L20.1274 5.8301L20.1434 4.76077L20.1593 3.69143H18.3123H16.4653V4.77624ZM2.95916 9.98235C2.85404 10.1428 2.91592 10.3893 3.07687 10.451C3.13031 10.4716 3.77836 10.4883 4.51693 10.4883C5.78168 10.4883 5.86658 10.4815 5.97697 10.3711C6.11801 10.2301 6.12351 10.1461 6.00293 9.97403C5.91293 9.84548 5.89306 9.84378 4.48084 9.84378H3.04998L2.95916 9.98235ZM8.00754 9.95094C7.87869 10.0933 7.88519 10.2286 8.02775 10.3711C8.13826 10.4816 8.22304 10.4883 9.5107 10.4883C10.9933 10.4883 11.0893 10.4693 11.0893 10.1763C11.0893 9.84811 11.0687 9.84378 9.52383 9.84378C8.22322 9.84378 8.09642 9.85274 8.00754 9.95094ZM12.6587 9.9571C12.5683 10.1261 12.5851 10.2826 12.7052 10.3913C12.7985 10.4758 12.9903 10.4883 14.1903 10.4883C15.4508 10.4883 15.5764 10.4792 15.6652 10.3811C15.7765 10.2581 15.7884 10.1195 15.7015 9.9571C15.644 9.8497 15.5643 9.84378 14.1801 9.84378C12.7959 9.84378 12.7162 9.8497 12.6587 9.9571ZM17.7074 9.91409C17.6024 10.0191 17.6226 10.2812 17.7443 10.3913C17.8376 10.4758 18.0294 10.4883 19.2294 10.4883C20.4898 10.4883 20.6155 10.4792 20.7042 10.3811C20.8264 10.2461 20.8286 10.0552 20.7091 9.93583C20.6304 9.85719 20.4098 9.84378 19.1974 9.84378C18.1713 9.84378 17.7582 9.86329 17.7074 9.91409ZM28.4477 12.3574C28.3188 12.4173 28.1294 12.5551 28.0269 12.6638C27.9243 12.7725 27.1022 14.1369 26.1999 15.696L24.5594 18.5306L24.6976 18.7429C25.3611 19.7619 24.9331 21.194 23.798 21.753L23.4113 21.9434L20.2972 21.9604L17.1831 21.9775L16.9999 21.8234C16.7676 21.6279 16.7514 21.3522 16.9582 21.1117L17.0995 20.9473L20.1981 20.918C23.6457 20.8854 23.4337 20.9118 23.7676 20.474C24.073 20.0736 24.007 19.3694 23.6324 19.0306C23.3276 18.7549 23.2669 18.75 20.1711 18.75C17.375 18.75 17.2378 18.7449 16.9091 18.6294C15.4573 18.1191 14.0487 18.5142 12.7936 19.7838C12.3619 20.2206 11.8314 20.8909 11.4922 21.4286C11.3246 21.6942 11.3096 21.748 11.3774 21.8406C11.4531 21.9436 13.8952 24.8779 14.1877 25.2171L14.3328 25.3854L14.5825 25.0022C14.7197 24.7915 14.8721 24.6037 14.921 24.585C14.9699 24.5662 17.1136 24.5508 19.6847 24.5508C22.5798 24.5508 24.4779 24.5283 24.6707 24.4917C25.3351 24.3658 25.9734 23.9361 26.2843 23.4057C26.5288 22.9885 30.0001 13.3021 30 13.0371C29.9999 12.7326 29.8166 12.4371 29.5615 12.3305C29.2784 12.2122 28.7323 12.2254 28.4477 12.3574ZM3.12433 12.3637C2.86295 12.4691 2.83295 12.8042 3.07072 12.963C3.10617 12.9867 4.71972 13.0064 6.65636 13.007C10.0495 13.0078 10.1812 13.0037 10.2789 12.8958C10.4218 12.738 10.3789 12.4724 10.1957 12.3802C10.0828 12.3233 9.2697 12.3071 6.6508 12.3093C4.78166 12.3109 3.19476 12.3354 3.12433 12.3637ZM17.4613 12.3787C17.2782 12.4728 17.2355 12.7382 17.3781 12.8958C17.4731 13.0007 17.5777 13.0078 19.0232 13.0078C20.4887 13.0078 20.5727 13.0019 20.684 12.8907C20.8219 12.7527 20.8333 12.6054 20.7181 12.4477C20.6401 12.341 20.5424 12.3331 19.1214 12.3187C17.9792 12.3072 17.5719 12.3219 17.4613 12.3787ZM8.29142 22.2274C7.58244 22.6551 7.00652 23.0252 7.01162 23.0499C7.03136 23.1456 12.5535 29.8535 12.6125 29.8535C12.6737 29.8535 14.3071 27.5763 14.4275 27.3231C14.4825 27.2076 14.2513 26.9101 12.0936 24.3201C10.7763 22.739 9.67201 21.4463 9.63955 21.4476C9.60709 21.4488 9.00041 21.7997 8.29142 22.2274Z" fill="#FC622C"/>
</g>
</g>
<defs>
<filter id="filter0_i_104_196" x="0" y="0.0778809" width="30" height="33.7756" filterUnits="userSpaceOnUse" color-interpolation-filters="sRGB">
<feFlood flood-opacity="0" result="BackgroundImageFix"/>
<feBlend mode="normal" in="SourceGraphic" in2="BackgroundImageFix" result="shape"/>
<feColorMatrix in="SourceAlpha" type="matrix" values="0 0 0 0 0 0 0 0 0 0 0 0 0 0 0 0 0 0 127 0" result="hardAlpha"/>
<feOffset dy="4"/>
<feGaussianBlur stdDeviation="7"/>
<feComposite in2="hardAlpha" operator="arithmetic" k2="-1" k3="1"/>
<feColorMatrix type="matrix" values="0 0 0 0 1 0 0 0 0 1 0 0 0 0 1 0 0 0 0.25 0"/>
<feBlend mode="normal" in2="shape" result="effect1_innerShadow_104_196"/>
</filter>
<clipPath id="clip0_104_196">
<rect width="30" height="30" fill="white"/>
</clipPath>
</defs>
</svg>
