<svg width="30" height="31" viewBox="0 0 30 31" fill="none" xmlns="http://www.w3.org/2000/svg">
<path d="M8.11706 3.09766C7.62675 3.09766 7.143 3.27391 6.73987 3.59547L6.68175 3.62453L6.65268 3.65453L3.723 6.67234L3.75206 6.70047C3.32219 7.0908 3.01761 7.59975 2.87679 8.16306C2.73596 8.72636 2.7652 9.31877 2.96081 9.86547C2.96456 9.87297 2.95706 9.88703 2.96081 9.89453C3.75581 12.1689 5.78831 16.5602 9.75768 20.5295C13.7421 24.5139 18.1914 26.4658 20.3927 27.3264H20.4217C20.9734 27.5088 21.5629 27.5452 22.1328 27.4322C22.7027 27.3191 23.2336 27.0605 23.6739 26.6814L26.6327 23.7227C27.4089 22.9464 27.4089 21.5983 26.6327 20.822L22.8246 17.0139L22.7946 16.9548C22.0183 16.1786 20.6421 16.1786 19.8649 16.9548L17.9899 18.8298C16.5827 18.1538 15.2884 17.2646 14.1527 16.1936C12.618 14.7283 11.8342 13.0436 11.5455 12.3845L13.4205 10.5095C14.208 9.72203 14.2221 8.41141 13.3905 7.63891L13.4196 7.60891L13.3324 7.52172L9.58237 3.65453L9.55331 3.62547L9.49425 3.59547C9.10515 3.27775 8.61937 3.10216 8.11706 3.09766ZM8.11706 4.97266C8.1937 4.97711 8.26635 5.00829 8.32237 5.06078L12.0724 8.89797L12.1605 8.98609C12.153 8.97859 12.2149 9.07797 12.1014 9.19141L9.75768 11.5352L9.318 11.9458L9.52425 12.5308C9.52425 12.5308 10.6005 15.4136 12.8636 17.5708L13.0689 17.7461C15.2467 19.7345 17.8146 20.822 17.8146 20.822L18.4005 21.0864L21.1839 18.302C21.3452 18.1417 21.3152 18.1417 21.4764 18.302L25.3146 22.142C25.4758 22.3023 25.4758 22.2442 25.3146 22.4045L22.443 25.2761C22.0117 25.6464 21.5533 25.7233 21.0086 25.5405C18.8842 24.7052 14.7564 22.892 11.0758 19.2123C7.36612 15.5017 5.42925 11.2942 4.71956 9.25141C4.57612 8.86984 4.67831 8.30641 5.01206 8.02047L5.07018 7.96141L7.91268 5.06172C7.96808 5.00929 8.04002 4.9778 8.11612 4.97266H8.11706Z" fill="#EAF4FC"/>
</svg>
