<svg xmlns="http://www.w3.org/2000/svg" viewBox="0 0 654.84 291.76"><defs><style>.cls-1{fill:#ea5a15;}.cls-1,.cls-2{fill-rule:evenodd;}.cls-2{fill:#575656;}</style></defs><title>Ресурс 1</title><g id="Слой_2" data-name="Слой 2"><g id="Слой_1-2" data-name="Слой 1"><path class="cls-1" d="M241.61,151.07l115.46.07c1.19-.63,1-1.2,1.43-2.85.3-1.16.63-2.48.95-3.68,2.23-8.24,12-45.78,13.58-50l25.91-.27c.84-1.75,3.94-13.15,4-15.36l-82.68.13-4.13,15.3,25.91,0c0,1.64-6.88,26.64-8.25,31.68-3.69,13.51,1.33,10.53-25.93,10.53H261.68c-8.38,0-8.24,2.17-12.63-10.67-8.59-25.12-3.8-52.45,10.69-73.5C279.81,23.37,321,7.93,357.93,23.07a82.63,82.63,0,0,1,15.33,8c18.59,12.44,2.9,10.12,34.9,10.07-3.49-7.18-17.7-19.29-24.17-23.77C350-6.2,304.43-5.09,272.08,16.52a100.68,100.68,0,0,0-40.81,55.86,102.24,102.24,0,0,0-2.63,43.12C230.38,126.27,235.93,143.86,241.61,151.07Z"/><path class="cls-2" d="M314.83,122.36c.67-1.67,4-13.42,3.76-15-7.08-.7-15,.13-22.15-.43-8-.63-5.12-9.44-3.63-15.38C296.7,76,296.86,65.18,311.7,65.16q22.68,0,45.37,0c14.66,0,30.83-.64,45.3,0,3.22,4,7,21.12,7.57,27.9,4.91,63.53-59.32,108.64-118,81.63a87,87,0,0,1-11.28-6.53,61.18,61.18,0,0,1-9.9-8.16l-23,0c2.77,5.92,17.7,18.73,24.27,23.1a100.85,100.85,0,0,0,76.84,14.42c19.19-4.12,33.39-12.65,47-24.64,11.91-10.5,22.49-27.8,27.54-44.52,5.86-19.42,5.24-42.19-1.67-61.89-1.56-4.46-5-13.08-7.74-16.27C412.71,49.53,313.59,50,307,50c-12.22,0-22-1.28-30.63,5.18-7.67,5.74-11.74,26.46-15,38.45-2.55,9.45-7.2,21,1.85,26.62,4.38,2.73,10.16,2.15,15.78,2.2C285.23,122.52,310.55,122.8,314.83,122.36Z"/><path class="cls-2" d="M71.21,239.53C64.32,227.81,53,221.64,37.36,221.64,16.32,221.64,0,235.06,0,256.7s16,35.06,37.36,35.06c15.59,0,27-6.16,33.85-17.89L59.48,267.1c-5.07,7.25-11.72,11.24-22.36,11.24-13.06,0-22.13-8.7-22.13-21.64,0-13.18,8.71-21.64,22.13-21.64,10.64,0,17.29,4,22.36,11.25l11.73-6.78Zm7.41-1.26v10.49H99.69v41.31H111.4V248.76h21.08V238.27Zm61.35,0v51.8h11.71V278.55h18.83c12.17,0,21.35-7.77,21.35-19.95s-9.18-20.33-21.35-20.33ZM151.68,249H170c6,0,10.11,3.65,10.11,9.65S176,267.87,170,267.87H151.68V249Zm59.1,15.27c0-10.68,7.59-17.14,17.33-17.14s17.33,6.46,17.33,17.14-7.58,17.14-17.33,17.14-17.33-6.46-17.33-17.14Zm46.37,0c0-16.3-13.3-27.17-29-27.17s-29,10.87-29,27.17,13.3,27.16,29,27.16,29-10.86,29-27.16Zm8.62-26v51.8H277.2l30.72-35.78v35.78h11.62v-51.8H308.2l-30.82,36v-36Zm36.34-17.7a15.58,15.58,0,0,1-20,0l-5.62,6.18c5.62,5.25,10.21,6.46,15.64,6.46s10-1.21,15.64-6.46Z"/><path class="cls-1" d="M327.85,223.21v13.54h27.2v53.32h15.11V236.75h27.21V223.21Zm88.79,41c0-10.68,7.58-17.14,17.32-17.14s17.33,6.46,17.33,17.14-7.58,17.14-17.33,17.14-17.32-6.46-17.32-17.14Zm46.36,0c0-16.3-13.3-27.17-29-27.17s-29,10.87-29,27.17,13.3,27.16,29,27.16,29-10.86,29-27.16Zm8.62-26V258.6c0,12.18,8.24,20.33,20.42,20.33h18.45v11.14H522.2v-51.8H510.49v30.07H493.82c-6.74,0-10.49-3.56-10.49-10.77v-19.3Zm60.23,0v51.8h11.62v-22h15.36l13.58,22h13.86l-17.79-27.82,16.57-24H571.57l-13,19.11H543.47V238.27Zm89.27,10.4h4L634.51,272h-23l9.65-23.32Zm-7.31-10.4-22.57,51.8h12.55l3.37-7.87H639.1l3.37,7.87h12.37l-22-51.8Z"/></g></g></svg>