<svg width="58" height="59" viewBox="0 0 58 59" fill="none" xmlns="http://www.w3.org/2000/svg">
<path d="M29.0002 1.17969C13.6244 1.17969 1.16016 13.8588 1.16016 29.4997C1.16016 45.1406 13.6244 57.8197 29.0002 57.8197C44.376 57.8197 56.8402 45.1406 56.8402 29.4997C56.8402 13.8588 44.376 1.17969 29.0002 1.17969ZM39.707 33.1311C39.707 33.1311 42.1691 35.6032 42.7752 36.7508C42.7926 36.7744 42.8013 36.798 42.8071 36.8098C43.0536 37.2316 43.1116 37.5591 42.9898 37.8039C42.7868 38.211 42.0908 38.4116 41.853 38.4293H37.503C37.2014 38.4293 36.5692 38.3497 35.8036 37.8128C35.2149 37.3939 34.6349 36.7065 34.0694 36.0369C33.2255 35.0398 32.4947 34.1784 31.7581 34.1784C31.6645 34.1782 31.5715 34.1932 31.4826 34.2226C30.9258 34.4055 30.2124 35.2138 30.2124 37.3673C30.2124 38.0399 29.6904 38.4264 29.3221 38.4264H27.3298C26.6512 38.4264 23.1161 38.1845 19.9841 34.8244C16.1503 30.7092 12.6993 22.4551 12.6703 22.3784C12.4528 21.8444 12.9023 21.5583 13.3924 21.5583H17.7859C18.3717 21.5583 18.5631 21.9211 18.6965 22.2427C18.8531 22.6173 19.4273 24.1071 20.3698 25.7827C21.8981 28.5144 22.8348 29.6236 23.5859 29.6236C23.7267 29.6219 23.865 29.5855 23.989 29.5174C24.9692 28.9628 24.7865 25.408 24.743 24.6705C24.743 24.5319 24.7401 23.0805 24.2384 22.3843C23.8788 21.8798 23.2669 21.6881 22.8957 21.6173C23.0459 21.4064 23.2438 21.2354 23.4728 21.1187C24.1456 20.7765 25.3578 20.7264 26.5613 20.7264H27.2312C28.5362 20.7441 28.8726 20.8296 29.3453 20.9506C30.3023 21.1836 30.3226 21.812 30.2385 23.9625C30.2124 24.5732 30.1863 25.2635 30.1863 26.0777C30.1863 26.2547 30.1776 26.4435 30.1776 26.6441C30.1486 27.7385 30.1138 28.9805 30.8736 29.4908C30.9727 29.5541 31.0872 29.5878 31.2042 29.5882C31.4681 29.5882 32.2627 29.5882 34.4145 25.8328C35.0781 24.6241 35.6548 23.368 36.14 22.0745C36.1835 21.9978 36.3111 21.7618 36.4619 21.6704C36.5731 21.6127 36.6965 21.5833 36.8215 21.5848H41.9864C42.549 21.5848 42.9347 21.6704 43.0072 21.8916C43.1348 22.2427 42.984 23.3135 40.6263 26.5615L39.5736 27.9745C37.4363 30.8242 37.4363 30.9688 39.707 33.1311Z" fill="#FAFAFA"/>
</svg>
