<svg width="56" height="57" viewBox="0 0 56 57" fill="none" xmlns="http://www.w3.org/2000/svg">
<path d="M28.003 0.583008C43.1912 0.583008 55.503 13.0813 55.503 28.4997C55.503 43.918 43.1912 56.4163 28.003 56.4163C23.1431 56.4243 18.3688 55.1187 14.1705 52.6336L0.513968 56.4163L4.23197 42.5473C1.78197 38.2841 0.494849 33.4353 0.502968 28.4997C0.502968 13.0813 12.8147 0.583008 28.003 0.583008ZM18.631 15.3788L18.081 15.4012C17.7249 15.4232 17.3769 15.5182 17.058 15.6803C16.7597 15.8518 16.4873 16.0662 16.2495 16.3168C15.9195 16.6323 15.7325 16.9059 15.5317 17.1711C14.5146 18.5136 13.9669 20.1618 13.9752 21.8555C13.9807 23.2234 14.3327 24.555 14.8827 25.8001C16.0075 28.3182 17.8582 30.9843 20.3002 33.4549C20.8887 34.0495 21.4662 34.6469 22.0877 35.2025C25.122 37.9145 28.7379 39.8702 32.6477 40.9142L34.2097 41.1571C34.7185 41.185 35.2272 41.1459 35.7387 41.1208C36.5396 41.0788 37.3217 40.8587 38.0295 40.4759C38.3896 40.2876 38.741 40.0827 39.0827 39.8618C39.0827 39.8618 39.201 39.7836 39.4265 39.6105C39.7977 39.3313 40.026 39.1331 40.334 38.8065C40.5622 38.5664 40.7602 38.2845 40.9115 37.9634C41.126 37.5084 41.3405 36.6402 41.4285 35.9171C41.4945 35.3644 41.4752 35.0629 41.467 34.8758C41.456 34.5771 41.2112 34.2673 40.9445 34.1361L39.344 33.4074C39.344 33.4074 36.9515 32.3494 35.4885 31.6738C35.3354 31.6059 35.1713 31.5671 35.0045 31.5593C34.8163 31.5397 34.6262 31.5612 34.4469 31.6224C34.2676 31.6835 34.1033 31.7829 33.965 31.9139C33.9512 31.9083 33.767 32.0674 31.7787 34.5129C31.6646 34.6686 31.5074 34.7862 31.3272 34.8509C31.1469 34.9155 30.9518 34.9242 30.7667 34.8758C30.5876 34.8271 30.4121 34.7655 30.2415 34.6916C29.9005 34.5464 29.7822 34.4906 29.5485 34.3901C27.9702 33.6909 26.5089 32.7462 25.2172 31.5901C24.8707 31.283 24.549 30.948 24.219 30.6241C23.1371 29.5723 22.1942 28.3824 21.414 27.0843L21.2517 26.8191C21.1352 26.6409 21.041 26.4486 20.9712 26.2468C20.8667 25.8364 21.139 25.507 21.139 25.507C21.139 25.507 21.8072 24.7644 22.118 24.3624C22.4205 23.9716 22.6762 23.5919 22.8412 23.3211C23.1657 22.7907 23.2675 22.2463 23.097 21.8248C22.327 19.9153 21.5295 18.0142 20.71 16.127C20.5477 15.7529 20.0665 15.4849 19.6292 15.4319C19.4807 15.4151 19.3322 15.3984 19.1837 15.3872C18.8144 15.3686 18.4443 15.3723 18.0755 15.3984L18.6282 15.376L18.631 15.3788Z" fill="#FAFAFA"/>
</svg>
